HIERARCHY
ROOT Hips
{
	OFFSET -3.958830 18.904000 13.208200
	CHANNELS 6 Xposition Yposition Zposition Zrotation Yrotation Xrotation 
	JOINT LHipJoint
	{
		OFFSET 0.000000 0.000000 0.000000
		CHANNELS 3 Zrotation Yrotation Xrotation
		JOINT LeftUpLeg
		{
			OFFSET 1.800000 -1.400000 0.085000
			CHANNELS 3 Zrotation Yrotation Xrotation
			JOINT LeftLeg
			{
				OFFSET 2.215000 -6.000000 0.000000
				CHANNELS 3 Zrotation Yrotation Xrotation
				JOINT LeftFoot
				{
					OFFSET 2.500000 -6.900000 0.000000
					CHANNELS 3 Zrotation Yrotation Xrotation
					JOINT LeftToeBase
					{
						OFFSET 0.200000 -0.500000 1.950000
						CHANNELS 3 Zrotation Yrotation Xrotation
						End Site
						{
							OFFSET 0.000000 0.000000 0.000000
						}
					}
				}
			}
		}
	}
	JOINT RHipJoint
	{
		OFFSET 0.000000 0.000000 0.000000
		CHANNELS 3 Zrotation Yrotation Xrotation
		JOINT RightUpLeg
		{
			OFFSET -1.800000 -1.400000 0.085000
			CHANNELS 3 Zrotation Yrotation Xrotation
			JOINT RightLeg
			{
				OFFSET -2.215000 -6.000000 0.000000
				CHANNELS 3 Zrotation Yrotation Xrotation
				JOINT RightFoot
				{
					OFFSET -2.500000 -6.900000 0.000000
					CHANNELS 3 Zrotation Yrotation Xrotation
					JOINT RightToeBase
					{
						OFFSET -0.200000 -0.500000 1.950000
						CHANNELS 3 Zrotation Yrotation Xrotation
						End Site
						{
							OFFSET 0.000000 0.000000 0.000000
						}
					}
				}
			}
		}
	}
	JOINT LowerBack
	{
		OFFSET 0.000000 0.000000 0.000000
		CHANNELS 3 Zrotation Yrotation Xrotation
		JOINT Spine
		{
			OFFSET -0.087000 1.940000 -0.288900
			CHANNELS 3 Zrotation Yrotation Xrotation
			JOINT Spine1
			{
				OFFSET 0.000000 1.950000 0.060000
				CHANNELS 3 Zrotation Yrotation Xrotation
				JOINT Neck
				{
					OFFSET 0.000000 0.000000 0.000000
					CHANNELS 3 Zrotation Yrotation Xrotation
					JOINT Neck1
					{
						OFFSET 0.000000 1.600000 0.340000
						CHANNELS 3 Zrotation Yrotation Xrotation
						JOINT Head
						{
							OFFSET 0.000000 1.667000 -0.240000
							CHANNELS 3 Zrotation Yrotation Xrotation
							End Site
							{
								OFFSET 0.000000 0.000000 0.000000
							}
						}
					}
				}
				JOINT LeftShoulder
				{
					OFFSET 0.000000 0.000000 0.000000
					CHANNELS 3 Zrotation Yrotation Xrotation
					JOINT LeftArm
					{
						OFFSET 2.700000 1.550000 -0.730000
						CHANNELS 3 Zrotation Yrotation Xrotation
						JOINT LeftForeArm
						{
							OFFSET 5.450000 0.000000 0.000000
							CHANNELS 3 Zrotation Yrotation Xrotation
							JOINT LeftHand
							{
								OFFSET 3.450000 0.000000 0.000000
								CHANNELS 3 Zrotation Yrotation Xrotation
								JOINT LeftHandIndex1
								{
									OFFSET 0.750000 0.000000 0.000000
									CHANNELS 3 Zrotation Yrotation Xrotation
									End Site
									{
										OFFSET 0.000000 0.000000 0.000000
									}
								}
							}
						}
					}
				}
				JOINT RightShoulder
				{
					OFFSET 0.000000 0.000000 0.000000
					CHANNELS 3 Zrotation Yrotation Xrotation
					JOINT RightArm
					{
						OFFSET -2.700000 1.550000 -0.730000
						CHANNELS 3 Zrotation Yrotation Xrotation
						JOINT RightForeArm
						{
							OFFSET -5.450000 0.000000 0.000000
							CHANNELS 3 Zrotation Yrotation Xrotation
							JOINT RightHand
							{
								OFFSET -3.450000 0.000000 0.000000
								CHANNELS 3 Zrotation Yrotation Xrotation
								JOINT RightHandIndex1
								{
									OFFSET -0.750000 0.000000 0.000000
									CHANNELS 3 Zrotation Yrotation Xrotation
									End Site
									{
										OFFSET 0.000000 0.000000 0.000000
									}
								}
							}
						}
					}
				}
			}
		}
	}
}
MOTION
Frames: 4
Frame Time: 0.016667
-0.066350 15.632620 -0.359320 -2.748461 -19.574031 1.067924 -15.625089 9.706104 5.996703 22.494891 -6.469493 -42.635668 -28.365287 31.769518 56.625561 1.735963 14.883898 -0.384691 0.948890 0.546260 0.961900 18.575874 -7.478428 4.065275 -0.486957 14.354731 -43.923568 -7.100700 -8.490300 74.338551 -2.118819 -11.107140 0.666073 0.300080 -0.121320 0.499860 -3.832253 -1.870975 -9.826474 13.273301 -4.837794 34.876380 -6.461187 -0.317278 8.654589 3.005775 -4.596501 -9.279315 -10.693562 11.323049 41.031872 -13.997360 11.357650 -14.578080 4.117292 -16.296764 4.311815 -1.286855 -15.744919 -0.948144 -22.089573 -41.565151 8.574316 -3.552110 3.399443 0.576570 0.128660 0.235400 0.177490 -10.533573 19.764068 0.855760 11.075914 27.432271 -5.228696 104.725714 75.052163 72.324031 3.016425 0.656192 0.060440 -0.065500 -0.332880 -0.384580 
-0.039090 15.670500 -0.339050 -3.518681 -21.092697 1.697684 -15.614205 9.600368 6.079252 24.022899 -5.592307 -42.547711 -29.592118 32.426793 55.547107 1.740581 14.895018 -0.377393 0.886490 0.452470 0.935930 18.598958 -7.453823 4.074878 -1.530348 14.478514 -44.073897 -4.765374 -10.166710 73.152667 -2.081494 -11.048859 0.687786 0.238570 -0.103530 0.501430 -3.951239 -1.711478 -9.879629 14.957893 -5.251601 34.601796 -6.965347 -0.167734 8.224936 3.325311 -5.249287 -9.632330 -11.862131 11.609899 40.731109 -15.027410 11.442820 -14.694540 3.197831 -15.869380 4.763171 -1.288888 -13.388537 -1.030948 -25.925206 -42.969716 10.173985 -3.566925 3.408098 0.600680 0.128440 0.221720 0.154830 -10.199062 19.942598 0.906696 11.267508 24.664246 -7.597618 116.424602 71.249106 83.700099 2.438555 -0.025896 0.039910 -0.058610 -0.290270 -0.394800 
-0.010980 15.755060 -0.295000 -3.701648 -22.679718 2.282307 -15.604835 9.553115 6.132516 25.552426 -4.630384 -41.983066 -30.613899 33.178664 54.530263 1.841048 14.834312 -0.331213 0.830400 0.412750 0.863000 18.606732 -7.444091 4.043819 -5.142841 13.919559 -44.531480 0.560639 -13.993095 70.922209 -2.066100 -11.182658 0.666402 0.173270 -0.087780 0.501600 -4.049573 -1.624888 -9.895661 16.414501 -5.667182 33.666965 -7.480621 -0.331503 8.341283 3.623596 -5.594265 -10.372864 -12.519885 12.055750 40.296767 -15.378520 11.835520 -13.847430 2.236868 -14.405618 5.256301 -2.009598 -9.593952 -1.048830 -32.943611 -44.577342 13.141371 -3.555364 3.503515 0.563300 0.127150 0.212770 0.165590 -9.792426 18.870088 1.976924 11.811979 21.340690 -8.315209 134.948103 67.952515 104.410260 1.862107 -1.106745 0.074510 -0.088720 -0.282550 -0.351170 
0.005710 15.831440 -0.235710 -2.894432 -23.896890 2.949966 -15.618669 9.500938 6.094806 26.283181 -4.058821 -41.698092 -30.278273 33.744934 54.689936 1.897393 14.892059 -0.310955 0.757810 0.336380 0.800530 18.601820 -7.300363 4.150248 -10.869957 12.878151 -46.271947 7.522744 -18.773228 68.036878 -2.093849 -11.577152 0.573095 0.119940 -0.046220 0.467020 -4.099889 -1.690114 -9.921941 16.746436 -5.804637 31.915697 -7.715862 -0.795649 8.643104 3.684542 -5.979907 -11.135857 -13.239790 12.513544 38.969294 -15.406280 12.049390 -13.117590 1.667596 -12.080505 5.559941 -4.372221 -5.433189 -1.085804 -39.985155 -45.736143 15.993705 -3.563411 3.533505 0.550290 0.132740 0.175620 0.165340 -9.265460 16.884006 3.429873 14.094787 19.010456 -7.111146 149.545042 64.298830 119.576335 1.700668 -1.624259 0.050390 -0.065210 -0.254950 -0.336000 
